<?xml version="1.0" encoding="iso-8859-1"?>
<!-- Generator: Adobe Illustrator 19.0.0, SVG Export Plug-In . SVG Version: 6.00 Build 0)  -->
<svg version="1.1" id="Layer_1" xmlns="http://www.w3.org/2000/svg" xmlns:xlink="http://www.w3.org/1999/xlink" x="0px" y="0px"
	 viewBox="0 0 512 512" style="enable-background:new 0 0 512 512;" xml:space="preserve">
<path style="fill:#F47973;" d="M450.982,234.157v-28.853C436.691,100.865,361.932,7.837,252.08,7.837
	c-109.851,0-183.213,90.251-198.903,197.467v28.853h397.805V234.157z"/>
<path style="fill:#ED5D51;" d="M424.627,120.717l-7.693-7.646l-15.656,15.56l15.656,15.557l12.848-12.77
	C428.144,127.804,426.425,124.234,424.627,120.717z"/>
<path style="fill:#FFFFFF;" d="M375.435,55.735l-10.096,6.236L334.445,42.89c-4.207-2.6-9.52-2.598-13.727,0l-30.896,19.081
	L258.929,42.89c-4.206-2.598-9.52-2.598-13.727,0L214.31,61.971L183.422,42.89c-4.207-2.598-9.521-2.598-13.728,0L138.8,61.971
	l-10.411-6.43c-6.573,5.96-12.773,12.385-18.584,19.225l22.131,13.669c4.206,2.597,9.52,2.599,13.727,0l30.895-19.081l30.887,19.081
	c4.207,2.597,9.52,2.599,13.728,0l30.893-19.081l30.892,19.081c2.103,1.3,4.483,1.949,6.863,1.949c2.379,0,4.761-0.65,6.863-1.949
	l30.896-19.081l30.895,19.081c4.206,2.598,9.52,2.598,13.727,0l21.897-13.524C388.263,68.1,382.032,61.692,375.435,55.735z"/>
<path style="fill:#C69C6D;" d="M356.987,183.896h-1.353c-39.892,0-75.613,17.982-99.634,46.336
	c-24.022-28.354-59.743-46.336-99.635-46.336h-1.353c-72.333,0-130.969,59.102-130.969,132.004S82.68,447.904,155.012,447.904h1.353
	c39.892,0,159.377,0,199.269,0h1.353c72.333,0,130.97-59.1,130.97-132.004S429.32,183.896,356.987,183.896z"/>
<path style="fill:#FFE2C5;" d="M71.873,181.005v149.418c0,95.953,78.331,173.74,174.957,173.74h10.495
	c96.628,0,174.96-77.787,174.96-173.74V181.005H71.873z"/>
<g style="opacity:0.1;">
	<path style="fill:#414042;" d="M104.49,330.423V181.005H71.873v149.418c0,95.953,78.331,173.74,174.957,173.74h10.495
		c3.717,0,7.402-0.129,11.06-0.355C176.915,498.138,104.49,422.684,104.49,330.423z"/>
</g>
<g>
	<path style="fill:#FFC197;" d="M165.03,391.665c0,14.528-11.89,26.308-26.554,26.308s-26.552-11.779-26.552-26.308
		c0-14.532,11.888-26.308,26.552-26.308C153.141,365.357,165.03,377.133,165.03,391.665z"/>
	<path style="fill:#FFC197;" d="M392.235,391.665c0,14.528-11.888,26.308-26.553,26.308c-14.664,0-26.552-11.779-26.552-26.308
		c0-14.532,11.888-26.308,26.552-26.308C380.347,365.357,392.235,377.133,392.235,391.665z"/>
</g>
<g>
	<path style="fill:#C69C6D;" d="M71.873,273.754c28.363,10.936,61.486,17.222,96.878,17.222
		c98.008,0,178.662-48.159,188.772-109.972H71.873V273.754z"/>
	<path style="fill:#C69C6D;" d="M424.551,296.008c2.593,0,5.171-0.053,7.734-0.153V181.005h-163.12
		C274.443,245.216,341.988,296.008,424.551,296.008z"/>
</g>
<path style="fill:#ED5D51;" d="M66.873,245.551c-30.024,0-33.192-12.875-33.192-42.684c0-12.98,10.599-23.502,23.675-23.502h389.445
	c13.077,0,23.675,10.522,23.675,23.502c0,29.808-2.639,42.684-32.666,42.684H66.873z"/>
<circle style="fill:#00B494;" cx="89.861" cy="128.627" r="20.898"/>
<polygon style="fill:#ED5D51;" points="155.671,144.188 140.016,128.631 155.671,113.072 171.326,128.631 "/>
<circle style="fill:#00B494;" cx="220.494" cy="128.627" r="20.898"/>
<polygon style="fill:#ED5D51;" points="286.302,144.188 270.647,128.631 286.302,113.072 301.957,128.631 "/>
<circle style="fill:#00B494;" cx="351.128" cy="128.627" r="20.898"/>
<g style="opacity:0.2;">
	<path style="fill:#414042;" d="M67.645,202.867c0-12.98,10.598-23.502,23.675-23.502h0.827C113.8,89.285,177.46,16.46,269.343,8.56
		c-5.397-0.469-10.883-0.723-16.463-0.723c-100.861,0-170.954,76.086-193.896,171.528h-0.825c-13.077,0-23.676,10.523-23.676,23.502
		c0,29.809,3.167,42.684,33.192,42.684h33.163C70.813,245.551,67.645,232.676,67.645,202.867z"/>
</g>
<g>
	<ellipse style="fill:#636052;" cx="172.983" cy="336.342" rx="21.263" ry="21.174"/>
	<path style="fill:#636052;" d="M327.42,314.157c-11.74,0-21.265,9.479-21.265,21.172c0,11.693,9.523,21.174,21.265,21.174
		c11.743,0,21.262-9.479,21.262-21.174C348.68,323.636,339.162,314.157,327.42,314.157z"/>
	<path style="fill:#636052;" d="M286.512,387.822c-4.328,0-7.837,3.508-7.837,7.837c0,14.491-11.932,26.279-26.596,26.279
		c-14.665,0-26.596-11.789-26.596-26.279c0-4.329-3.509-7.837-7.837-7.837c-4.328,0-7.837,3.508-7.837,7.837
		c0,23.133,18.962,41.953,42.269,41.953s42.269-18.821,42.269-41.953C294.349,391.331,290.84,387.822,286.512,387.822z"/>
	<path style="fill:#636052;" d="M472.591,238.612c5.266-9.091,5.723-21.582,5.723-35.745c0-15.386-11.209-28.207-25.929-30.837
		c-10.916-42.126-31.415-80.384-59.315-109.997C354.84,21.45,306.086,0,252.08,0c-54.136,0-102.705,21.086-140.454,60.977
		c-11.318,11.961-21.449,25.471-30.245,40.197c-11.717,3.627-20.254,14.564-20.254,27.457c0,3.525,0.642,6.904,1.809,10.028
		c-4.283,10.739-7.945,21.88-10.949,33.335c-14.825,2.544-26.14,15.414-26.14,30.874c0,17.737,1.077,32.354,10.139,41.223
		c-12.537,21.005-19.778,45.565-19.778,71.809c0,60.051,37.771,111.369,90.631,131.14C140.396,486.725,190.695,512,246.831,512
		h10.495c54.432,0,103.375-23.763,136.891-61.386c58.514-16.432,101.577-70.596,101.577-134.714
		C495.794,287.342,487.238,260.768,472.591,238.612z M89.861,115.57c7.202,0,13.061,5.859,13.061,13.061
		c0,7.202-5.859,13.061-13.061,13.061c-7.202,0-13.061-5.859-13.061-13.061C76.8,121.429,82.659,115.57,89.861,115.57z
		 M74.337,152.792c4.481,2.889,9.807,4.574,15.524,4.574c15.845,0,28.735-12.891,28.735-28.735c0-12.422-7.925-23.025-18.982-27.027
		c7.033-10.795,14.844-20.814,23.396-29.852c34.715-36.687,79.346-56.079,129.069-56.079c49.579,0,94.389,19.746,129.582,57.106
		c25.125,26.671,43.849,60.919,54.361,98.749H68.346C70.13,165.167,72.127,158.914,74.337,152.792z M57.358,187.202h389.445
		c8.733,0,15.839,7.028,15.839,15.665c0,13.74-0.645,23.27-3.85,28.318c-1.932,3.04-6.063,6.53-20.978,6.53H66.873
		c-15.038,0-19.282-3.537-21.298-6.618c-3.378-5.162-4.057-14.629-4.057-28.229C41.518,194.23,48.623,187.202,57.358,187.202z
		 M424.449,253.388v34.784c-41.168-0.022-78.692-13.312-105.63-34.784H424.449z M290.429,253.388
		c-33.527,19.193-76.639,29.752-121.678,29.752c-31.258,0-61.916-5.117-89.041-14.832v-14.92H290.429z M31.88,315.9
		c0-23.576,6.569-45.623,17.933-64.416c4.032,1.061,8.735,1.694,14.224,1.854v25.794v51.291c0,32.506,8.651,63.04,23.775,89.462
		C54.164,397.698,31.88,359.38,31.88,315.9z M257.326,496.327h-10.495c-92.151,0-167.12-74.425-167.12-165.904v-45.545
		c27.469,9.132,58.003,13.936,89.041,13.936c52.793,0,101.036-13.652,136.651-36.145c2.505,2.127,5.101,4.199,7.798,6.206
		c30.298,22.533,69.803,34.95,111.249,34.971v26.579C424.449,421.902,349.478,496.327,257.326,496.327z M412.115,426.899
		c17.732-27.971,28.007-61.051,28.007-96.476v-27.026v-50.031c6.805-0.133,14.27-0.959,20.734-4.034
		c12.18,19.253,19.263,42.087,19.263,66.569C480.12,364.391,452.405,406.469,412.115,426.899z"/>
	<path style="fill:#636052;" d="M220.492,99.896c-15.845,0-28.735,12.891-28.735,28.735s12.89,28.735,28.735,28.735
		c15.844,0,28.735-12.891,28.735-28.735S236.337,99.896,220.492,99.896z M220.492,141.692c-7.202,0-13.061-5.859-13.061-13.061
		s5.859-13.061,13.061-13.061s13.061,5.859,13.061,13.061C233.553,135.833,227.695,141.692,220.492,141.692z"/>
	<path style="fill:#636052;" d="M351.123,99.896c-15.845,0-28.735,12.891-28.735,28.735s12.89,28.735,28.735,28.735
		c15.845,0,28.735-12.891,28.735-28.735S366.968,99.896,351.123,99.896z M351.123,141.692c-7.201,0-13.061-5.859-13.061-13.061
		s5.86-13.061,13.061-13.061c7.202,0,13.061,5.859,13.061,13.061C364.185,135.833,358.326,141.692,351.123,141.692z"/>
</g>
<g>
</g>
<g>
</g>
<g>
</g>
<g>
</g>
<g>
</g>
<g>
</g>
<g>
</g>
<g>
</g>
<g>
</g>
<g>
</g>
<g>
</g>
<g>
</g>
<g>
</g>
<g>
</g>
<g>
</g>
</svg>
