<?xml version="1.0" encoding="utf-8"?>
<!-- Generator: Adobe Illustrator 24.0.1, SVG Export Plug-In . SVG Version: 6.00 Build 0)  -->
<svg version="1.1" xmlns="http://www.w3.org/2000/svg" xmlns:xlink="http://www.w3.org/1999/xlink" x="0px" y="0px"
	 viewBox="0 0 194.1 242.7" style="enable-background:new 0 0 194.1 242.7;" xml:space="preserve">
<style type="text/css">
	.st0{display:none;}
	.st1{display:inline;fill:#F7F8FC;}
	.st2{display:inline;}
	.st3{fill:#F7F8FC;}
	.st4{fill:#FFFFFF;stroke:#0561FC;stroke-width:10.0091;}
	.st5{fill:#9AC7F7;}
	.st6{fill:#C5E1F9;stroke:#0561FC;stroke-width:10.0091;}
	.st7{fill:none;stroke:#0561FC;stroke-width:10.0091;}
	.st8{fill:#9AC7F7;stroke:#0561FC;stroke-width:10.0091;}
	.st9{fill:#FFFFFF;stroke:#0561FC;stroke-width:10.0091;stroke-linejoin:round;}
	.st10{fill:#C5E1F9;}
	.st11{fill:#FFFFFF;}
	.st12{fill:none;stroke:#0561FC;stroke-width:10.0091;stroke-linejoin:bevel;}
</style>
<g id="Layer_2">
</g>
<g id="Layer_3">
</g>
<g id="Layer_4">
	<g>
		<path class="st6" d="M187.8,221.7c0.9-4.6,1.4-9.3,1.4-14.2V75.2c0-38.7-30-70.1-67-70.1H72C35,5,5,36.4,5,75.2v132.4
			c0,4.9,0.5,9.6,1.4,14.2H187.8z"/>
		<path class="st4" d="M23.7,242.6V195c0-11.1,9-20,20-20h103.7c11,0,20,9,20,20v47.6"/>
		<rect x="28.7" y="195.6" class="st5" width="133.7" height="16.9"/>
		<rect x="28.7" y="225.8" class="st5" width="133.7" height="16.9"/>
		<path class="st4" d="M93.9,195.6c-11.7,0-21.2-9.5-21.2-21.3v-114c0-11.8,9.5-21.3,21.2-21.3l0,0c11.7,0,21.2,9.5,21.2,21.3v114
			C115.2,186.1,105.7,195.6,93.9,195.6L93.9,195.6z"/>
		<path class="st4" d="M91.9,17.3C81.1,43,55.7,61.1,26,61.1c-0.5,0-1.1,0-1.6,0c-2.1,6.7-3.2,13.8-3.2,21.1
			c0,39.5,32,71.6,71.4,71.6c39.5,0,71.4-32.1,71.4-71.6C164.1,42.6,101.4,44.5,91.9,17.3z"/>
		<line class="st7" x1="73.3" y1="75.2" x2="65" y2="75.2"/>
		<line class="st7" x1="110" y1="75.2" x2="101.6" y2="75.2"/>
		<path class="st7" d="M68.2,116.3c7.1,4.4,15.5,6.9,24.5,6.9c9,0,17.4-2.5,24.5-6.9"/>
	</g>
</g>
</svg>
